<svg width="25" height="25" viewBox="0 0 25 25" fill="none" xmlns="http://www.w3.org/2000/svg">
<g id="icon/editor/format_italicon/editor/24px">
<path id="icon/editor/format_italicon/editor/24px_2" d="M10.4523 7.09668C10.4523 7.92668 11.1223 8.59668 11.9523 8.59668L12.6623 8.59668L9.2423 16.5967L7.9523 16.5967C7.1223 16.5967 6.4523 17.2667 6.4523 18.0967C6.4523 18.9267 7.1223 19.5967 7.9523 19.5967L12.9523 19.5967C13.7823 19.5967 14.4523 18.9267 14.4523 18.0967C14.4523 17.2667 13.7823 16.5967 12.9523 16.5967L12.2423 16.5967L15.6623 8.59668L16.9523 8.59668C17.7823 8.59668 18.4523 7.92668 18.4523 7.09668C18.4523 6.26668 17.7823 5.59668 16.9523 5.59668L11.9523 5.59668C11.1223 5.59668 10.4523 6.26668 10.4523 7.09668Z" fill="black"/>
</g>
</svg>
