<svg width="25" height="25" viewBox="0 0 25 25" fill="none" xmlns="http://www.w3.org/2000/svg">
<path fill-rule="evenodd" clip-rule="evenodd" d="M9.57234 5.61189C8.52392 5.61189 7.67761 4.53989 7.67761 3.21189C7.67761 1.88389 8.52392 0.81189 9.57234 0.81189H22.2039C23.2523 0.81189 24.0987 1.88389 24.0987 3.21189C24.0987 4.53989 23.2523 5.61189 22.2039 5.61189H17.7829V22.4119C17.7829 23.7399 16.9366 24.8119 15.8881 24.8119C14.8397 24.8119 13.9934 23.7399 13.9934 22.4119V5.61189H9.57234ZM3.88811 13.6119H1.99337C0.944949 13.6119 0.0986328 12.5399 0.0986328 11.2119C0.0986328 9.88386 0.944949 8.81186 1.99337 8.81186H9.57232C10.6207 8.81186 11.4671 9.88386 11.4671 11.2119C11.4671 12.5399 10.6207 13.6119 9.57232 13.6119H7.67758V22.4119C7.67758 23.7399 6.83126 24.8119 5.78284 24.8119C4.73442 24.8119 3.88811 23.7399 3.88811 22.4119V13.6119Z" fill="black"/>
</svg>
