<svg width="25" height="25" viewBox="0 0 25 25" fill="none" xmlns="http://www.w3.org/2000/svg">
<g id="icon/editor/format_underlined_24px">
<path id="icon/editor/format_underlined_24px_2" fill-rule="evenodd" clip-rule="evenodd" d="M18.8018 11.7745C18.8018 14.8245 16.6218 17.5445 13.5918 17.9345C9.93182 18.4045 6.80182 15.5545 6.80182 11.9845V5.2345C6.80182 4.5445 7.36182 3.9845 8.05182 3.9845C8.74182 3.9845 9.30182 4.5445 9.30182 5.2345V11.9845C9.30182 14.1545 11.2818 15.8745 13.5318 15.4045C15.1718 15.0745 16.3018 13.5545 16.3018 11.8845V5.2345C16.3018 4.5445 16.8618 3.9845 17.5518 3.9845C18.2418 3.9845 18.8018 4.5445 18.8018 5.2345V11.7745ZM6.80182 21.9845C6.25182 21.9845 5.80182 21.5345 5.80182 20.9845C5.80182 20.4345 6.25182 19.9845 6.80182 19.9845H18.8018C19.3518 19.9845 19.8018 20.4345 19.8018 20.9845C19.8018 21.5345 19.3518 21.9845 18.8018 21.9845H6.80182Z" fill="black"/>
</g>
</svg>
