<svg width="25" height="25" viewBox="0 0 25 25" fill="none" xmlns="http://www.w3.org/2000/svg">
<g id="icon/editor/format_bold_24px">
<path id="icon/editor/format_bold_24px_2" fill-rule="evenodd" clip-rule="evenodd" d="M15.6595 12.6255C16.6267 11.9515 17.3023 10.8488 17.2982 9.82882C17.289 7.56883 15.532 5.83591 13.2821 5.845L8.0321 5.8662C7.4821 5.86842 7.03392 6.32024 7.03614 6.87023L7.0846 18.8701C7.08682 19.4201 7.53863 19.8683 8.08863 19.8661L13.8686 19.8427C15.9386 19.8344 17.8217 18.1368 17.8233 16.0567C17.8271 14.5267 16.9619 13.2202 15.6595 12.6255ZM10.0422 8.35809L13.0421 8.34598C13.8721 8.34262 14.5448 9.00991 14.5482 9.83991C14.5515 10.6699 13.8843 11.3426 13.0543 11.346L10.0543 11.3581L10.0422 8.35809ZM10.0785 17.358L13.5785 17.3439C14.4085 17.3406 15.0758 16.6679 15.0724 15.8379C15.0691 15.0079 14.3964 14.3406 13.5664 14.3439L10.0664 14.3581L10.0785 17.358Z" fill="black"/>
</g>
</svg>
