<svg width="20" height="20" viewBox="0 0 20 20" fill="none" xmlns="http://www.w3.org/2000/svg">
<path fill-rule="evenodd" clip-rule="evenodd" d="M20 2.22222V17.7778C20 19 19 20 17.7778 20H2.22222C1 20 0 19 0 17.7778V2.22222C0 1 1 0 2.22222 0H17.7778C19 0 20 1 20 2.22222ZM8.88891 18.011L6.55558 15.1998C6.32224 14.9221 5.90002 14.9332 5.68891 15.2221L2.92224 18.7776C2.63335 19.1443 2.88891 19.6776 3.35558 19.6776H16.6778C17.1334 19.6776 17.4 19.1554 17.1222 18.7887L13.2222 13.5887C13 13.2887 12.5556 13.2887 12.3334 13.5776L8.88891 18.011Z" fill="black"/>
</svg>
