<svg width="25" height="25" viewBox="0 0 25 25" fill="none" xmlns="http://www.w3.org/2000/svg">
<g id="icon/editor/insert_link_24px">
<path id="icon/editor/insert_link_24px_2" fill-rule="evenodd" clip-rule="evenodd" d="M4.06564 11.4347C4.34564 9.96469 5.72564 8.95469 7.22564 8.95469L10.1556 8.95469C10.6756 8.95469 11.1056 8.52469 11.1056 8.00469C11.1056 7.48469 10.6756 7.05469 10.1556 7.05469L7.32564 7.05469C4.71564 7.05469 2.38564 8.96469 2.13563 11.5647C1.84563 14.5447 4.18563 17.0547 7.10563 17.0547L10.1556 17.0547C10.6756 17.0547 11.1056 16.6247 11.1056 16.1047C11.1056 15.5847 10.6756 15.1547 10.1556 15.1547L7.10563 15.1547C5.19563 15.1547 3.68563 13.4147 4.06564 11.4347ZM9.10561 13.0547L15.1056 13.0547C15.6556 13.0547 16.1056 12.6047 16.1056 12.0547C16.1056 11.5047 15.6556 11.0547 15.1056 11.0547L9.10561 11.0547C8.55561 11.0547 8.10561 11.5047 8.10561 12.0547C8.10561 12.6047 8.55561 13.0547 9.10561 13.0547ZM14.0556 7.05469L16.8856 7.05469C19.4956 7.05469 21.8356 8.96469 22.0856 11.5647C22.3656 14.5447 20.0256 17.0547 17.1056 17.0547L14.0556 17.0547C13.5356 17.0547 13.1056 16.6247 13.1056 16.1047C13.1056 15.5847 13.5356 15.1547 14.0556 15.1547L17.1056 15.1547C19.0156 15.1547 20.5256 13.4147 20.1456 11.4347C19.8656 9.96469 18.4856 8.95469 16.9856 8.95469L14.0556 8.95469C13.5356 8.95469 13.1056 8.52469 13.1056 8.00469C13.1056 7.48469 13.5356 7.05469 14.0556 7.05469Z" fill="black"/>
</g>
</svg>
